<?xml version="1.0" encoding="UTF-8"?>
<!DOCTYPE svg PUBLIC "-//W3C//DTD SVG 1.1//EN" "http://www.w3.org/Graphics/SVG/1.1/DTD/svg11.dtd">
<svg version="1.1" xmlns="http://www.w3.org/2000/svg" xmlns:xlink="http://www.w3.org/1999/xlink" x="0" y="0" width="495" height="453" viewBox="0, 0, 495, 453">
  <g id="Layer_1">
    <path d="M134.27,294.32 C96.044,294.32 64.942,263.219 64.942,224.984 L64.942,71.305 C64.942,33.086 96.044,1.976 134.27,1.976 L360.177,1.976 C398.404,1.976 429.497,33.086 429.497,71.305 L429.497,224.984 C429.497,263.219 398.404,294.32 360.177,294.32 L134.27,294.32" fill="#35A0CD"/>
    <path d="M390.294,231.82 C390.294,242.906 381.302,251.89 370.216,251.89 L124.231,251.89 C113.145,251.89 104.153,242.906 104.153,231.82 L104.153,64.469 C104.153,53.375 113.145,44.391 124.231,44.391 L370.216,44.391 C381.302,44.391 390.294,53.375 390.294,64.469 L390.294,231.82" fill="#CBE9F2"/>
    <path d="M249.036,250.078 C249.036,258.047 255.497,264.492 263.458,264.492 L352.466,264.492 C360.435,264.492 366.896,258.047 366.896,250.078 L366.896,134.57 C366.896,126.602 360.435,120.141 352.466,120.141 L263.458,120.141 C255.497,120.141 249.036,126.602 249.036,134.57 L249.036,250.078" fill="#F2F1F0"/>
    <path d="M256.856,193.398 C256.856,200.313 262.458,205.914 269.364,205.914 L346.552,205.914 C353.466,205.914 359.068,200.313 359.068,193.398 L359.068,93.219 C359.068,86.328 353.466,80.719 346.552,80.719 L269.364,80.719 C262.458,80.719 256.856,86.328 256.856,93.219 L256.856,193.398" fill="#F2F1F0"/>
    <path d="M236.958,250.078 C236.958,258.047 230.497,264.492 222.528,264.492 L133.52,264.492 C125.552,264.492 119.091,258.047 119.091,250.078 L119.091,134.57 C119.091,126.602 125.552,120.141 133.52,120.141 L222.528,120.141 C230.497,120.141 236.958,126.602 236.958,134.57 L236.958,250.078" fill="#F2F1F0"/>
    <path d="M229.13,193.398 C229.13,200.313 223.536,205.914 216.622,205.914 L139.427,205.914 C132.521,205.914 126.919,200.313 126.919,193.398 L126.919,93.219 C126.919,86.328 132.521,80.719 139.427,80.719 L216.622,80.719 C223.536,80.719 229.13,86.328 229.13,93.219 L229.13,193.398" fill="#F2F1F0"/>
    <path d="M194.849,160.992 L159.981,160.992 C134.849,167.828 125.739,176.664 120.7,258.727 L234.122,258.727 C229.083,176.664 219.974,167.828 194.849,160.992" fill="#283278"/>
    <path d="M195.958,158.609 C195.958,169.508 187.653,178.336 177.411,178.336 C167.169,178.336 158.872,169.508 158.872,158.609 C158.872,147.711 167.169,138.867 177.411,138.867 C187.653,138.867 195.958,147.711 195.958,158.609" fill="#F7CCAA"/>
    <path d="M150.591,114.414 C150.591,122.203 144.966,128.531 138.028,128.531 C131.083,128.531 125.474,122.203 125.474,114.414 C125.474,106.617 131.083,100.289 138.028,100.289 C144.966,100.289 150.591,106.617 150.591,114.414" fill="#F7CCAA"/>
    <path d="M230.575,114.414 C230.575,122.203 224.966,128.531 218.021,128.531 C211.075,128.531 205.458,122.203 205.458,114.414 C205.458,106.617 211.075,100.289 218.021,100.289 C224.966,100.289 230.575,106.617 230.575,114.414" fill="#F7CCAA"/>
    <path d="M223.021,108.883 C223.021,136.344 202.872,158.609 178.02,158.609 C153.177,158.609 133.02,136.344 133.02,108.883 C133.02,81.422 153.177,59.156 178.02,59.156 C202.872,59.156 223.021,81.422 223.021,108.883" fill="#F7CCAA"/>
    <path d="M161.88,110.391 C161.88,112.625 160.067,114.438 157.833,114.438 C155.591,114.438 153.77,112.625 153.77,110.391 C153.77,108.141 155.591,106.328 157.833,106.328 C160.067,106.328 161.88,108.141 161.88,110.391" fill="#2D2118"/>
    <path d="M202.278,110.391 C202.278,112.625 200.458,114.438 198.224,114.438 C195.981,114.438 194.169,112.625 194.169,110.391 C194.169,108.141 195.981,106.328 198.224,106.328 C200.458,106.328 202.278,108.141 202.278,110.391" fill="#2D2118"/>
    <path d="M155.919,124.125 C155.919,127.359 152.013,130 147.192,130 C142.372,130 138.466,127.359 138.466,124.125 C138.466,120.883 142.372,118.258 147.192,118.258 C152.013,118.258 155.919,120.883 155.919,124.125" fill="#EFA88C"/>
    <path d="M217.583,124.125 C217.583,127.359 213.677,130 208.856,130 C204.036,130 200.122,127.359 200.122,124.125 C200.122,120.883 204.036,118.258 208.856,118.258 C213.677,118.258 217.583,120.883 217.583,124.125" fill="#EFA88C"/>
    <path d="M195.224,126.312 C193.833,133.672 186.661,139.281 178.02,139.281 C169.395,139.281 162.216,133.672 160.825,126.312 L159.521,126.312 C160.927,134.375 168.677,140.57 178.02,140.57 C187.372,140.57 195.13,134.375 196.528,126.312 L195.224,126.312" fill="#2D2118"/>
    <path d="M173.958,126.945 C173.739,126.945 173.52,126.937 173.302,126.93 C172.958,126.914 172.7,126.625 172.716,126.289 C172.731,125.937 172.974,125.664 173.364,125.703 C176.161,125.82 178.942,124.992 180.685,124.328 C174.583,122.695 172.841,118.68 172.763,118.5 C172.63,118.18 172.778,117.82 173.091,117.695 C173.396,117.555 173.771,117.711 173.895,118.023 C173.974,118.203 175.849,122.422 182.817,123.516 C183.075,123.562 183.286,123.766 183.325,124.031 C183.364,124.297 183.231,124.555 182.997,124.672 C182.81,124.773 178.528,126.945 173.958,126.945" fill="#2D2118"/>
    <path d="M177.286,76.414 C177.286,76.414 133.341,102.109 124.247,58.437 C124.247,58.437 142.481,65.484 160.778,58.437 C160.778,58.437 181.356,40.601 204.239,62.672 C204.239,62.672 227.036,74.344 223.364,101 C223.364,101 196.966,87.812 197.005,76.414 C197.005,76.414 189.388,94.586 172.114,95.531 C172.114,95.531 176.325,81.703 177.286,76.414" fill="#2D2118"/>
    <path d="M151.7,97.047 L164.005,101.211 C164.005,101.211 156.981,93.445 151.7,97.047" fill="#2D2118"/>
    <path d="M204.349,97.047 L192.052,101.211 C192.052,101.211 199.075,93.445 204.349,97.047" fill="#2D2118"/>
    <path d="M177.997,268.047 C150.286,268.047 127.739,245.492 127.739,217.773 C127.739,190.062 150.286,167.515 177.997,167.515 C205.724,167.515 228.271,190.062 228.271,217.773 C228.271,245.492 205.724,268.047 177.997,268.047 z M177.997,177.695 C155.895,177.695 137.911,195.672 137.911,217.773 C137.911,239.883 155.895,257.867 177.997,257.867 C200.106,257.867 218.091,239.883 218.091,217.773 C218.091,195.672 200.106,177.695 177.997,177.695" fill="#636463"/>
    <path d="M148.794,206.852 C145.895,214.086 138.817,218.062 132.989,215.719 C127.145,213.398 124.763,205.625 127.661,198.398 C130.552,191.172 137.622,187.203 143.466,189.539 C149.302,191.875 151.685,199.625 148.794,206.852" fill="#F7CCAA"/>
    <path d="M207.208,206.852 C210.106,214.086 217.177,218.062 223.021,215.719 C228.856,213.398 231.239,205.625 228.349,198.398 C225.458,191.172 218.38,187.203 212.544,189.539 C206.708,191.875 204.317,199.625 207.208,206.852" fill="#F7CCAA"/>
    <path d="M230.2,234.156 C226.739,238.133 219.325,237.32 213.63,232.367 L121.755,152.313 C116.067,147.359 114.263,140.117 117.724,136.148 C121.192,132.172 128.599,132.977 134.286,137.93 L226.161,217.984 C231.849,222.945 233.653,230.195 230.2,234.156" fill="#CBCCCB"/>
    <path d="M322.036,164.734 L296.716,164.734 C278.458,169.695 271.849,176.109 268.192,235.703 L350.56,235.703 C346.903,176.109 340.286,169.695 322.036,164.734" fill="#0B8B42"/>
    <path d="M333.575,202.867 L326.45,206.445 L319.341,202.867 L319.341,189.273 L333.575,189.273 L333.575,202.867" fill="#2D2118"/>
    <path d="M323.146,164.852 C323.146,172.945 316.981,179.508 309.372,179.508 C301.771,179.508 295.599,172.945 295.599,164.852 C295.599,156.758 301.771,150.195 309.372,150.195 C316.981,150.195 323.146,156.758 323.146,164.852" fill="#F7CCAA"/>
    <path d="M286.567,134.648 C286.567,140.414 281.888,145.094 276.122,145.094 C270.356,145.094 265.677,140.414 265.677,134.648 C265.677,128.883 270.356,124.195 276.122,124.195 C281.888,124.195 286.567,128.883 286.567,134.648" fill="#F7CCAA"/>
    <path d="M353.075,134.648 C353.075,140.414 348.396,145.094 342.63,145.094 C336.864,145.094 332.177,140.414 332.177,134.648 C332.177,128.883 336.864,124.195 342.63,124.195 C348.396,124.195 353.075,128.883 353.075,134.648" fill="#F7CCAA"/>
    <path d="M346.786,130.555 C346.786,150.875 330.044,167.344 309.372,167.344 C288.716,167.344 271.958,150.875 271.958,130.555 C271.958,110.25 288.716,93.773 309.372,93.773 C330.044,93.773 346.786,110.25 346.786,130.555" fill="#F7CCAA"/>
    <path d="M297.435,131.68 C297.435,133.336 296.091,134.672 294.435,134.672 C292.778,134.672 291.435,133.336 291.435,131.68 C291.435,130.015 292.778,128.672 294.435,128.672 C296.091,128.672 297.435,130.015 297.435,131.68" fill="#2D2118"/>
    <path d="M327.317,131.68 C327.317,133.336 325.974,134.672 324.317,134.672 C322.661,134.672 321.317,133.336 321.317,131.68 C321.317,130.015 322.661,128.672 324.317,128.672 C325.974,128.672 327.317,130.015 327.317,131.68" fill="#2D2118"/>
    <path d="M293.021,141.836 C293.021,144.234 290.13,146.172 286.567,146.172 C282.997,146.172 280.106,144.234 280.106,141.836 C280.106,139.437 282.997,137.5 286.567,137.5 C290.13,137.5 293.021,139.437 293.021,141.836" fill="#EFA88C"/>
    <path d="M338.638,141.836 C338.638,144.234 335.747,146.172 332.177,146.172 C328.614,146.172 325.724,144.234 325.724,141.836 C325.724,139.437 328.614,137.5 332.177,137.5 C335.747,137.5 338.638,139.437 338.638,141.836" fill="#EFA88C"/>
    <path d="M322.099,143.453 C321.067,148.883 315.763,153.055 309.372,153.055 C302.989,153.055 297.685,148.883 296.645,143.453 L295.685,143.453 C296.724,149.422 302.45,154 309.372,154 C316.294,154 322.036,149.422 323.067,143.453 L322.099,143.453" fill="#2D2118"/>
    <path d="M271.927,120.219 L291.958,120.219 C291.958,120.219 292.63,110.914 299.716,107.797 C299.716,107.797 296.88,116.031 299.716,120.219 L317.45,120.219 C317.45,120.219 318.427,107.797 322.724,107.797 C322.724,107.797 320.692,118.875 325.45,121.648 L346.817,121.648 C346.817,121.648 342.872,93.258 312.255,91.188 C312.255,91.188 276.403,87.984 271.927,120.219" fill="#7D563A"/>
    <path d="M309.372,93.289 C308.849,93.289 308.419,92.867 308.419,92.344 L308.419,82.148 C308.419,81.617 308.849,81.195 309.372,81.195 C309.895,81.195 310.325,81.617 310.325,82.148 L310.325,92.344 C310.325,92.867 309.895,93.289 309.372,93.289" fill="#7D563A"/>
    <path d="M309.755,93.289 C309.567,93.289 309.38,93.242 309.208,93.125 C308.778,92.82 308.677,92.227 308.974,91.797 L314.841,83.445 C315.138,83.008 315.731,82.898 316.169,83.211 C316.599,83.515 316.708,84.109 316.403,84.539 L310.536,92.89 C310.356,93.148 310.052,93.289 309.755,93.289" fill="#7D563A"/>
    <path d="M308.989,93.289 C308.692,93.289 308.395,93.148 308.208,92.89 L302.349,84.539 C302.044,84.109 302.153,83.515 302.583,83.211 C303.005,82.906 303.606,83.008 303.911,83.445 L309.771,91.797 C310.075,92.227 309.966,92.82 309.536,93.125 C309.372,93.242 309.185,93.289 308.989,93.289" fill="#7D563A"/>
    <path d="M313.724,141.156 C313.583,141.156 313.442,141.094 313.356,140.977 C312.067,139.242 310.731,138.367 309.396,138.367 L309.286,138.367 C307.052,138.445 305.435,140.922 305.419,140.945 C305.286,141.156 305.005,141.234 304.786,141.086 C304.575,140.945 304.505,140.664 304.645,140.453 C304.724,140.336 306.536,137.555 309.247,137.453 C310.981,137.359 312.575,138.398 314.091,140.43 C314.239,140.633 314.192,140.914 313.997,141.07 C313.911,141.125 313.817,141.156 313.724,141.156" fill="#2D2118"/>
    <path d="M255.786,234.156 C259.247,238.133 266.661,237.32 272.349,232.367 L364.224,152.313 C369.912,147.359 371.724,140.117 368.255,136.148 C364.81,132.172 357.388,132.977 351.7,137.93 L259.825,217.984 C254.138,222.945 252.333,230.195 255.786,234.156" fill="#CBCCCB"/>
    <path d="M139.927,411.562 C139.927,433.031 126.372,450.445 109.653,450.445 L82.099,450.445 C65.38,450.445 51.825,433.031 51.825,411.562 C51.825,390.094 65.38,372.695 82.099,372.695 L109.653,372.695 C126.372,372.695 139.927,390.094 139.927,411.562" fill="#343534"/>
    <path d="M442.615,411.562 C442.615,433.031 429.068,450.445 412.349,450.445 L384.787,450.445 C368.068,450.445 354.521,433.031 354.521,411.562 C354.521,390.094 368.068,372.695 384.787,372.695 L412.349,372.695 C429.068,372.695 442.615,390.094 442.615,411.562" fill="#343534"/>
    <path d="M492.31,312.656 C492.31,365.867 449.177,409.008 395.951,409.008 L98.489,409.008 C45.278,409.008 2.13,365.867 2.13,312.656 C2.13,259.43 45.278,216.289 98.489,216.289 L395.951,216.289 C449.177,216.289 492.31,259.43 492.31,312.656" fill="#35A0CD"/>
    <path d="M112.817,305.313 C112.817,328.695 93.856,347.672 70.458,347.672 C47.067,347.672 28.106,328.695 28.106,305.313 C28.106,281.93 47.067,262.953 70.458,262.953 C93.856,262.953 112.817,281.93 112.817,305.313" fill="#FF4C41"/>
    <path d="M466.333,305.313 C466.333,328.695 447.373,347.672 423.982,347.672 C400.583,347.672 381.623,328.695 381.623,305.313 C381.623,281.93 400.583,262.953 423.982,262.953 C447.373,262.953 466.333,281.93 466.333,305.313" fill="#FF4C41"/>
    <path d="M309.583,336.383 L184.864,336.383 C146.489,336.383 115.395,367.476 115.395,405.836 C115.395,406.898 115.513,407.945 115.56,409.008 L378.88,409.008 C378.935,407.945 379.037,406.898 379.037,405.836 C379.037,367.476 347.935,336.383 309.583,336.383" fill="#CBCCCB"/>
    <path d="M482.896,386.25 C482.896,398.812 475.208,409.008 465.724,409.008 L28.716,409.008 C19.231,409.008 11.536,398.812 11.536,386.25 C11.536,373.672 19.231,363.476 28.716,363.476 L465.724,363.476 C475.208,363.476 482.896,373.672 482.896,386.25" fill="#9E9F9E"/>
  </g>
</svg>
